<svg xmlns="http://www.w3.org/2000/svg" xmlns:xlink="http://www.w3.org/1999/xlink" width="133.059" height="71.647" viewBox="0 0 133.059 71.647">
  <defs>
    <style>
      .cls-1 {
        fill: none;
      }

      .cls-2 {
        clip-path: url(#clip-path);
      }

      .cls-3 {
        fill: #fff;
      }
    </style>
    <clipPath id="clip-path">
      <rect id="Rectangle_17" data-name="Rectangle 17" class="cls-1" width="133.059" height="71.647"/>
    </clipPath>
  </defs>
  <g id="Group_2" data-name="Group 2" transform="translate(-219.211 -267.93)">
    <g id="Group_1" data-name="Group 1" class="cls-2" transform="translate(219.211 267.93)">
      <path id="Path_3" data-name="Path 3" class="cls-3" d="M292.708,90.548c.423-3.936-.485-8-1.778-11.99-1.669-4.33-1.838-10.361,1.049-14.649a17.3,17.3,0,0,1,11.725-7.56c-3.682,2.633-6.832,5.778-8.3,9.387a12.146,12.146,0,0,0-.979,5.52,6.158,6.158,0,0,0,.131,1.411c.079.472.128.944.222,1.415l.41,1.413c.133.473.245.916.446,1.517,1.449,4.436,2.238,9.457.886,14.334a14.956,14.956,0,0,1-3.69,6.375,15.53,15.53,0,0,1-5.937,3.686C290.163,98.166,292.352,94.492,292.708,90.548Zm19.43,16.909a11.237,11.237,0,0,0,7.884-7.7,19.123,19.123,0,0,0-.586-11.362c-.162-.481-.242-.8-.342-1.153l-.31-1.049a14.563,14.563,0,0,1-.285-2.075,9.212,9.212,0,0,1,.615-4.071c1-2.708,3.275-5.228,6.04-7.474a13,13,0,0,0-9.464,5.647c-2.39,3.4-2.277,8.326-.957,11.721a23.917,23.917,0,0,1,1.477,9.018C316.034,101.9,314.559,104.741,312.138,107.456Zm-49.936,0a11.24,11.24,0,0,0,7.884-7.7A19.123,19.123,0,0,0,269.5,88.4c-.162-.481-.242-.8-.342-1.153l-.311-1.049a14.653,14.653,0,0,1-.284-2.075,9.2,9.2,0,0,1,.615-4.071c1-2.708,3.275-5.228,6.04-7.474a13,13,0,0,0-9.464,5.647c-2.389,3.4-2.277,8.326-.956,11.721a23.929,23.929,0,0,1,1.477,9.018C266.1,101.9,264.622,104.741,262.2,107.456ZM352.7,163.24c0,10.368-4.1,18.069-12.2,22.884a2.473,2.473,0,0,1-1.267.349h-91.1a2.468,2.468,0,0,1-1.267-.349c-8.095-4.817-12.2-12.516-12.2-22.884,0-23.136,19.919-42.521,46.433-47.261.032-.009.066-.011.1-.019a71.482,71.482,0,0,1,24.878-.018c.067.013.137.02.2.038C332.783,120.726,352.7,140.108,352.7,163.24Zm-38.939-40.309a63.638,63.638,0,0,0-8.222-2.053,35.053,35.053,0,0,0-6.416,1.867,55.781,55.781,0,0,1,7.392,5.616A49.831,49.831,0,0,1,313.756,122.931Zm-32.909,5.43a55.724,55.724,0,0,1,7.341-5.582,35.62,35.62,0,0,0-6.374-1.9,63.52,63.52,0,0,0-8.213,2.051A49.83,49.83,0,0,1,280.847,128.361Zm3.563,3.456a77.8,77.8,0,0,1,9.269,11.965,77.84,77.84,0,0,1,9.226-11.921,51.024,51.024,0,0,0-9.3-6.55A50.219,50.219,0,0,0,284.409,131.817Zm63.333,31.423c0-16.3-11.241-30.521-27.817-37.948a38.536,38.536,0,0,0-9.828,6.577,66.782,66.782,0,0,1,12.019,18.288,2.476,2.476,0,0,1-4.512,2.043A61.276,61.276,0,0,0,306.5,135.34a74.922,74.922,0,0,0-9.953,13.25c1.4,2.507,2.775,5.22,4.112,8.171a2.476,2.476,0,0,1-4.512,2.043q-1.213-2.68-2.465-5.089-1.252,2.414-2.468,5.089a2.476,2.476,0,0,1-4.512-2.043c1.338-2.955,2.717-5.671,4.117-8.18a74.863,74.863,0,0,0-9.963-13.3,61.88,61.88,0,0,0-11.1,16.918,2.476,2.476,0,1,1-4.512-2.043,66.744,66.744,0,0,1,12.047-18.316,37.633,37.633,0,0,0-9.847-6.553c-16.581,7.427-27.826,21.652-27.826,37.952,0,8.488,2.931,14.315,9.213,18.281h89.705C344.811,177.555,347.743,171.729,347.743,163.24ZM286.491,196.3h6.429v1.954h-4.112v2.064h3.5v1.938h-3.5v2.363h4.269v1.954h-6.586Zm8.636,0h2.317v8.319h4.065v1.954h-6.382Zm-59.214,15.222h6.96c4.153,0,7.72,1.521,7.72,6.316,0,4.65-3.626,6.667-7.6,6.667h-2.047v6.024h-5.03Zm6.843,9.007c1.988,0,2.925-.995,2.925-2.691s-1.111-2.34-3.041-2.34h-1.7v5.03Zm12.87-9.007h6.083l5.79,19.008h-5.322l-.936-4.035h-5.322l-.936,4.035h-5.147Zm1.2,11.084h3.509l-.322-1.316c-.468-1.813-.936-4.124-1.4-6.024h-.117c-.409,1.93-.878,4.211-1.345,6.024Zm12.49-11.084h5.615c5.791,0,9.767,2.69,9.767,9.416s-3.977,9.592-9.475,9.592h-5.907Zm5.322,14.973c2.749,0,4.913-1.111,4.913-5.557s-2.164-5.381-4.913-5.381h-.292v10.937Zm13.455-14.973h7.194c4.095,0,7.6,1.4,7.6,6.141a5.83,5.83,0,0,1-3.071,5.5l4.124,7.37h-5.615l-3.276-6.375h-1.93v6.375h-5.03Zm6.843,8.656c1.988,0,3.041-.878,3.041-2.515s-1.053-2.164-3.041-2.164h-1.813v4.679Zm11.583-8.656h5.03v19.008h-5.03Zm9.242,0h5.147L325.118,220l1.813,4.269h.117a68.274,68.274,0,0,1-.643-7.253v-5.5h4.8v19.008h-5.147l-4.211-8.51-1.813-4.241h-.117a71.144,71.144,0,0,1,.643,7.253v5.5h-4.8Zm18.836,9.416c0-6.258,3.568-9.767,8.832-9.767s8.831,3.538,8.831,9.767c0,6.258-3.568,9.943-8.831,9.943S334.6,227.2,334.6,220.937Zm12.516,0c0-3.451-1.4-5.439-3.684-5.439s-3.685,1.988-3.685,5.439,1.4,5.615,3.685,5.615S347.112,224.388,347.112,220.937Zm-91.835,18.232h3.53c2.253,0,4.081.82,4.081,3.309,0,2.41-1.843,3.482-4.018,3.482h-1.277v3.483h-2.316Zm3.451,4.948c1.277,0,1.891-.567,1.891-1.638s-.693-1.466-1.954-1.466h-1.072v3.1Zm7.061-4.948h2.789l3.215,10.274h-2.458L268.7,247h-3.135l-.63,2.442h-2.363Zm.252,6.019h2.19l-.236-.946c-.283-1.024-.567-2.237-.835-3.309H267.1c-.252,1.087-.52,2.285-.8,3.309Zm6.872-6.019h2.379l2.679,5.105,1.008,2.269h.063c-.095-1.087-.284-2.537-.284-3.75v-3.624h2.206v10.274h-2.379l-2.679-5.121-1.009-2.237h-.063c.095,1.134.284,2.505.284,3.718v3.64h-2.207Zm12.387,0h2.789l3.215,10.274h-2.458l-.63-2.442h-3.136l-.63,2.442h-2.363Zm.252,6.019h2.191l-.236-.946c-.284-1.024-.567-2.237-.835-3.309h-.063c-.252,1.087-.52,2.285-.8,3.309Zm6.872-6.019h2.9c3.136,0,5.153,1.56,5.153,5.09s-2.017,5.184-5.027,5.184h-3.025Zm2.758,8.4c1.749,0,2.915-.85,2.915-3.309s-1.166-3.214-2.915-3.214h-.441v6.522Zm7.251-8.4h6.43v1.954H304.75v2.064h3.5v1.938h-3.5v2.363h4.271v1.954h-6.587Zm8.637,0h3.7c2.174,0,3.955.756,3.955,3.2a3,3,0,0,1-1.828,2.962l2.332,4.113h-2.6l-1.97-3.7h-1.277v3.7H311.07Zm3.514,4.727c1.214,0,1.875-.52,1.875-1.529s-.661-1.355-1.875-1.355h-1.2V243.9Zm6.147-4.727h2.317v10.274h-2.317Zm6.651,0h2.788l3.215,10.274h-2.458L330.3,247h-3.136l-.63,2.442h-2.363Zm.252,6.019h2.191l-.236-.946c-.284-1.024-.567-2.237-.836-3.309h-.062c-.252,1.087-.519,2.285-.8,3.309Z" transform="translate(-224.921 -189.737)"/>
    </g>
  </g>
</svg>
